<?xml version="1.0" standalone="no"?>
<!DOCTYPE svg PUBLIC "-//W3C//DTD SVG 20010904//EN"
 "http://www.w3.org/TR/2001/REC-SVG-20010904/DTD/svg10.dtd">
<svg version="1.0" xmlns="http://www.w3.org/2000/svg"
 width="16.000000pt" height="16.000000pt" viewBox="0 0 16.000000 16.000000"
 preserveAspectRatio="xMidYMid meet">
<metadata>
Created by potrace 1.11, written by Peter Selinger 2001-2013
</metadata>
<g transform="translate(0.000000,16.000000) scale(0.022222,-0.022222)"
fill="#000000" stroke="none">
<path d="M263 696 c-202 -65 -298 -289 -207 -483 22 -45 116 -143 138 -143 9
0 16 -4 16 -9 0 -5 29 -17 65 -26 80 -22 161 -16 230 16 55 25 155 118 155
143 0 9 4 16 8 16 12 0 28 77 28 126 -1 27 -5 38 -14 36 -8 -1 -11 2 -6 9 14
23 13 68 -1 108 -8 23 -12 41 -10 41 5 0 -9 19 -58 76 -46 54 -144 97 -230
100 -43 2 -89 -2 -114 -10z m230 -68 c55 -30 81 -53 112 -98 33 -47 69 -173
60 -208 -4 -15 -7 -29 -7 -32 0 -3 -9 -23 -20 -44 -53 -105 -173 -169 -294
-160 -232 17 -349 294 -200 471 81 97 242 129 349 71z"/>
<path d="M282 568 c-23 -23 -19 -31 63 -120 19 -21 37 -38 40 -38 13 0 33 -27
27 -36 -4 -5 -27 -26 -52 -46 -113 -92 -122 -110 -67 -136 29 -14 51 -7 88 31
8 7 42 33 76 56 85 58 104 83 92 123 -8 29 -22 44 -114 122 -27 24 -103 56
-130 56 -6 0 -16 -5 -23 -12z"/>
</g>
</svg>
